<svg xmlns="http://www.w3.org/2000/svg" x="0px" y="0px" width="100" height="100" viewBox="0,0,256,256">
<defs><linearGradient x1="8.469" y1="8.469" x2="42.33" y2="42.33" gradientUnits="userSpaceOnUse" id="color-1_57GgOxl1VjRW_gr1"><stop offset="0" stop-color="#2aa4f4"></stop><stop offset="1" stop-color="#007ad9"></stop></linearGradient></defs><g fill-opacity="0" fill="#dddddd" fill-rule="nonzero" stroke="none" stroke-width="1" stroke-linecap="butt" stroke-linejoin="miter" stroke-miterlimit="10" stroke-dasharray="" stroke-dashoffset="0" font-family="none" font-weight="none" font-size="none" text-anchor="none" style="mix-blend-mode: normal"><path d="M0,256v-256h256v256z" id="bgRectangle"></path></g><g fill="none" fill-rule="nonzero" stroke="none" stroke-width="1" stroke-linecap="butt" stroke-linejoin="miter" stroke-miterlimit="10" stroke-dasharray="" stroke-dashoffset="0" font-family="none" font-weight="none" font-size="none" text-anchor="none" style="mix-blend-mode: normal"><g transform="scale(5.33333,5.33333)"><path d="M39,41h-30c-1.1,0 -2,-0.9 -2,-2v-30c0,-1.1 0.9,-2 2,-2h30c1.1,0 2,0.9 2,2v30c0,1.1 -0.9,2 -2,2z" fill="url(#color-1_57GgOxl1VjRW_gr1)"></path><path d="M41,7h-5.528l-14.777,14.777c-0.746,0.746 -0.746,1.954 0,2.7l2.828,2.828c0.746,0.746 1.954,0.746 2.7,0l14.777,-14.777z" fill="#000000" opacity="0.018"></path><path d="M41,7h-5.4l-14.841,14.841c-0.71,0.71 -0.71,1.861 0,2.571l2.828,2.828c0.71,0.71 1.861,0.71 2.571,0l14.842,-14.84z" fill="#000000" opacity="0.036"></path><path d="M41,7h-5.271l-14.906,14.906c-0.675,0.675 -0.675,1.768 0,2.443l2.828,2.828c0.675,0.675 1.768,0.675 2.443,0l14.906,-14.906z" fill="#000000" opacity="0.054"></path><path d="M41,7h-5.143l-14.97,14.97c-0.639,0.639 -0.639,1.675 0,2.314l2.828,2.828c0.639,0.639 1.675,0.639 2.314,0l14.971,-14.969z" fill="#000000" opacity="0.073"></path><path d="M41,7h-5.014l-15.034,15.034c-0.604,0.604 -0.604,1.582 0,2.186l2.828,2.828c0.604,0.604 1.582,0.604 2.186,0l15.034,-15.034z" fill="#000000" opacity="0.091"></path><path d="M41,7h-4.885l-15.099,15.098c-0.568,0.568 -0.568,1.489 0,2.057l2.828,2.828c0.568,0.568 1.489,0.568 2.057,0l15.099,-15.098z" fill="#000000" opacity="0.109"></path><path d="M41,7h-4.757l-15.162,15.163c-0.533,0.533 -0.533,1.396 0,1.928l2.828,2.828c0.533,0.533 1.396,0.533 1.928,0l15.163,-15.162z" fill="#000000" opacity="0.127"></path><path d="M41,7h-4.628l-15.227,15.227c-0.497,0.497 -0.497,1.303 0,1.8l2.828,2.828c0.497,0.497 1.303,0.497 1.8,0l15.227,-15.227z" fill="#000000" opacity="0.145"></path><path d="M41,7h-4.5l-15.291,15.291c-0.462,0.462 -0.462,1.21 0,1.671l2.828,2.828c0.462,0.462 1.21,0.462 1.671,0l15.292,-15.29z" fill="#000000" opacity="0.164"></path><path d="M41,7h-4.371l-15.356,15.355c-0.426,0.426 -0.426,1.117 0,1.543l2.828,2.828c0.426,0.426 1.117,0.426 1.543,0l15.356,-15.355z" fill="#000000" opacity="0.182"></path><path d="M41,7h-4.243l-15.42,15.42c-0.391,0.391 -0.391,1.024 0,1.414l2.828,2.828c0.391,0.391 1.024,0.391 1.414,0l15.421,-15.419z" fill="#000000" opacity="0.2"></path><path d="M36.452,1.379l2.963,2.963l-18.077,18.078c-0.391,0.391 -0.391,1.024 0,1.414l2.828,2.828c0.391,0.391 1.024,0.391 1.414,0l18.078,-18.077l2.963,2.963c0.509,0.509 1.379,0.149 1.379,-0.571v-9.361c0,-0.893 -0.723,-1.616 -1.616,-1.616h-9.361c-0.72,0 -1.08,0.87 -0.571,1.379z" fill="#50e6ff"></path></g></g>
</svg>